<?xml version="1.0" encoding="UTF-8" standalone="no"?>
<!-- Created with Inkscape (http://www.inkscape.org/) -->

<svg
   width="297mm"
   height="210mm"
   viewBox="0 0 1122.5197 793.70081"
   version="1.1"
   id="svg5"
   inkscape:version="1.1.2 (0a00cf5339, 2022-02-04)"
   sodipodi:docname="dibujo.svg"
   xmlns:inkscape="http://www.inkscape.org/namespaces/inkscape"
   xmlns:sodipodi="http://sodipodi.sourceforge.net/DTD/sodipodi-0.dtd"
   xmlns="http://www.w3.org/2000/svg"
   xmlns:svg="http://www.w3.org/2000/svg">
  <sodipodi:namedview
     id="namedview7"
     pagecolor="#ffffff"
     bordercolor="#666666"
     borderopacity="1.0"
     inkscape:pageshadow="2"
     inkscape:pageopacity="0.0"
     inkscape:pagecheckerboard="0"
     inkscape:document-units="mm"
     showgrid="false"
     showguides="false"
     inkscape:guide-bbox="true"
     inkscape:zoom="0.83744452"
     inkscape:cx="545.11074"
     inkscape:cy="370.77083"
     inkscape:window-width="1366"
     inkscape:window-height="704"
     inkscape:window-x="0"
     inkscape:window-y="0"
     inkscape:window-maximized="1"
     inkscape:current-layer="layer1">
    <sodipodi:guide
       position="992.19424,284.70091"
       orientation="1,0"
       id="guide57729" />
    <sodipodi:guide
       position="981.85268,274.69806"
       orientation="0,-1"
       id="guide57731" />
  </sodipodi:namedview>
  <defs
     id="defs2" />
  <g
     inkscape:label="Capa 1"
     inkscape:groupmode="layer"
     id="layer1">
    <text
       xml:space="preserve"
       style="font-weight:300;font-size:366.667px;line-height:448.15px;font-family:'Fira Sans';-inkscape-font-specification:'Fira Sans Light'"
       x="-14.800171"
       y="484.53217"
       id="text7095"><tspan
         sodipodi:role="line"
         id="tspan7093"
         x="-14.800171"
         y="484.53217" /></text>
    <g
       aria-label="SIMPLE"
       id="text11385"
       style="font-weight:200;font-size:14.1111px;font-family:Montserrat;-inkscape-font-specification:'Montserrat Ultra-Light';font-variant-ligatures:none;stroke-width:0.264583"
       transform="matrix(21.554545,0,0,22.866143,-1098.5989,-2108.2917)">
      <path
         d="m 54.608279,114.95533 q -1.086554,0 -2.06022,-0.381 -0.959555,-0.39511 -1.467555,-0.98777 l 0.254,-0.33867 q 0.479777,0.53622 1.354666,0.91722 0.888999,0.36689 1.904998,0.36689 1.030111,0 1.693332,-0.28222 0.663222,-0.28222 0.973666,-0.74789 0.324555,-0.47978 0.324555,-1.05833 0,-0.67734 -0.338666,-1.08656 -0.338666,-0.40922 -0.90311,-0.64911 -0.550333,-0.23989 -1.213555,-0.39511 -0.649111,-0.15522 -1.326443,-0.32456 -0.663222,-0.18344 -1.227666,-0.45155 -0.550333,-0.28222 -0.888999,-0.762 -0.324556,-0.49389 -0.324556,-1.27 0,-0.66322 0.352778,-1.24178 0.352777,-0.57855 1.100666,-0.93133 0.747888,-0.36689 1.919109,-0.36689 0.804333,0 1.580443,0.254 0.790222,0.23989 1.340555,0.64911 l -0.211667,0.381 q -0.592666,-0.43744 -1.312332,-0.64911 -0.719666,-0.21166 -1.382888,-0.21166 -0.987777,0 -1.650998,0.29633 -0.649111,0.28222 -0.959555,0.762 -0.310444,0.47978 -0.310444,1.05833 0,0.69145 0.338666,1.10067 0.338666,0.40922 0.888999,0.64911 0.564444,0.23989 1.227666,0.39511 0.663222,0.15522 1.326443,0.33866 0.663222,0.16934 1.213555,0.45156 0.564444,0.28222 0.888999,0.762 0.338667,0.46567 0.338667,1.22767 0,0.66322 -0.366889,1.24177 -0.352777,0.57856 -1.128888,0.93133 -0.761999,0.35278 -1.947332,0.35278 z"
         id="path22139" />
      <path
         d="m 60.633694,114.89889 v -9.87777 h 0.479777 v 9.87777 z"
         id="path22141" />
      <path
         d="m 64.725899,114.89889 v -9.87777 h 0.39511 l 4.656663,8.08566 h -0.211666 l 4.628441,-8.08566 h 0.395111 l 0.01411,9.87777 h -0.465667 l -0.01411,-9.17222 h 0.155222 l -4.487329,7.80344 h -0.254 l -4.515552,-7.80344 h 0.169333 v 9.17222 z"
         id="path22143" />
      <path
         d="m 78.216102,114.89889 v -9.87777 H 81.6451 q 1.227665,0 2.102554,0.39511 0.888999,0.39511 1.354665,1.12889 0.465667,0.71966 0.465667,1.74977 0,1.03011 -0.465667,1.76389 -0.465666,0.73378 -1.354665,1.12889 -0.874889,0.39511 -2.102554,0.39511 H 78.484213 L 78.69588,111.357 v 3.54189 z m 0.479778,-3.54189 -0.211667,-0.21167 h 3.189109 q 1.66511,0 2.539998,-0.74788 0.888999,-0.74789 0.888999,-2.10256 0,-1.35466 -0.888999,-2.08844 -0.874888,-0.74789 -2.539998,-0.74789 h -3.189109 l 0.211667,-0.22578 z"
         id="path22145" />
      <path
         d="m 88.122089,114.89889 v -9.87777 h 0.479778 v 9.44032 h 5.785551 v 0.43745 z"
         id="path22147" />
      <path
         d="m 96.729843,109.66367 h 5.446887 v 0.43744 h -5.446887 z m 0.08467,4.79777 h 6.194767 v 0.43745 h -6.674544 v -9.87777 h 6.476994 v 0.43744 h -5.997217 z"
         id="path22149" />
    </g>
    <rect
       style="fill:#ffffff;stroke-width:5.8739"
       id="rect22423"
       height="225.86649"
       x="296.53918"
       y="293.13617"
       width="15.435591" />
    <rect
       style="fill:#ffffff;stroke-width:5.8739"
       id="rect125"
       height="225.86649"
       x="296.53918"
       y="293.13617"
       width="15.435591" />
    <path
       d="m 78.457897,520.29326 q -23.420128,0 -44.407125,-8.712 Q 13.368045,502.54658 2.4183485,488.9948 l 5.4747965,-7.74406 q 10.341388,12.26126 29.199288,20.97326 19.161958,8.38937 41.061307,8.38937 22.20351,0 36.49908,-6.45331 14.29542,-6.45326 20.98682,-17.10132 6.99573,-10.97074 6.99573,-24.19994 0,-15.48822 -7.29981,-24.84543 -7.29983,-9.35731 -19.46621,-14.84263 -11.86212,-5.48536 -26.157538,-9.03468 -13.991363,-3.54926 -28.590981,-7.42148 -14.295367,-4.19452 -26.461738,-10.32515 -11.862165,-6.45331 -19.161957,-17.424 -6.995578,-11.29337 -6.995578,-29.04 0,-15.16531 7.603887,-28.39468 7.603946,-13.22926 23.724444,-21.29595 16.120346,-8.38937 41.365416,-8.38937 17.337015,0 34.065875,5.808 17.03274,5.48537 28.89496,14.84263 l -4.56241,8.712 q -12.77459,-10.00257 -28.28673,-14.84263 -15.512077,-4.83989 -29.807493,-4.83989 -21.291153,0 -35.586506,6.77595 -13.991363,6.45331 -20.682785,17.424 -6.691422,10.97068 -6.691422,24.19994 0,15.81074 7.299678,25.16806 7.299835,9.35731 19.16206,14.84263 12.166322,5.48537 26.461789,9.03468 14.295366,3.54926 28.590879,7.74378 14.29552,3.87222 26.15759,10.32548 12.16632,6.45332 19.16199,17.424 7.29976,10.64806 7.29976,28.07206 0,15.16531 -7.90819,28.39446 -7.60387,13.22948 -24.33259,21.29595 -16.42453,8.06674 -41.973863,8.06673 z"
       id="path111"
       style="font-weight:200;font-size:14.1111px;font-family:Montserrat;-inkscape-font-specification:'Montserrat Ultra-Light';font-variant-ligatures:none;stroke-width:5.8739" />
    <path
       d="M 208.33297,519.00274 V 293.13617 h 10.34146 v 225.86657 z"
       id="path113"
       style="font-weight:200;font-size:14.1111px;font-family:Montserrat;-inkscape-font-specification:'Montserrat Ultra-Light';font-variant-ligatures:none;stroke-width:5.8739" />
    <path
       d="M 296.53859,519.00274 V 293.13617 h 8.51646 l 100.37227,184.88789 h -4.56229 l 99.76386,-184.88789 h 8.5164 l 0.30436,225.86657 h -10.0372 l -0.30432,-209.73331 h 3.3458 L 405.73148,487.704 h -5.4748 L 302.92601,309.26943 h 3.64994 v 209.73331 z"
       id="path115"
       style="font-weight:200;font-size:14.1111px;font-family:Montserrat;-inkscape-font-specification:'Montserrat Ultra-Light';font-variant-ligatures:none;stroke-width:5.8739" />
    <path
       d="M 587.31377,519.00274 V 293.13617 h 73.91058 q 26.46169,0 45.31958,9.03468 19.16196,9.03463 29.19913,25.81332 10.03728,16.45589 10.03728,40.01057 0,23.55463 -10.03728,40.33332 -10.03717,16.77874 -29.19913,25.81337 -18.85789,9.03463 -45.31958,9.03463 h -68.13157 l 4.56248,-5.16269 v 80.98937 z m 10.34149,-80.98937 -4.56248,-4.84011 h 68.73983 q 35.89062,0 54.74862,-17.10115 19.16183,-17.10131 19.16183,-48.07737 0,-30.97589 -19.16183,-47.75463 -18.858,-17.10131 -54.74862,-17.10131 h -68.73983 l 4.56248,-5.16274 z"
       id="path117"
       style="font-weight:200;font-size:14.1111px;font-family:Montserrat;-inkscape-font-specification:'Montserrat Ultra-Light';font-variant-ligatures:none;stroke-width:5.8739" />
    <path
       d="M 800.83288,519.00274 V 293.13617 h 10.34136 v 215.86372 h 124.70492 v 10.00285 z"
       id="path119"
       style="font-weight:200;font-size:14.1111px;font-family:Montserrat;-inkscape-font-specification:'Montserrat Ultra-Light';font-variant-ligatures:none;stroke-width:5.8739" />
    <path
       d="M 986.36898,399.29343 H 1103.7741 V 409.296 H 986.36898 Z m 1.82524,109.70646 h 133.52538 v 10.00285 H 977.85266 V 293.13617 H 1117.4612 V 303.1388 H 988.19422 Z"
       id="path121"
       style="font-weight:200;font-size:14.1111px;font-family:Montserrat;-inkscape-font-specification:'Montserrat Ultra-Light';font-variant-ligatures:none;stroke-width:5.8739" />
    <rect
       style="fill:#ffffff;stroke-width:4.95118"
       id="rect57723"
       width="10.03722"
       height="225.8665"
       x="296.53839"
       y="293.13626" />
    <rect
       style="fill:#ffffff;stroke-width:4.95118"
       id="rect57755"
       width="10.341738"
       height="225.86649"
       x="977.85248"
       y="293.13623" />
  </g>
</svg>
