<?xml version="1.0" encoding="UTF-8" standalone="no"?>
<!-- Created with Inkscape (http://www.inkscape.org/) -->

<svg
   width="297mm"
   height="210mm"
   viewBox="0 0 1122.5197 793.70081"
   version="1.1"
   id="svg5"
   inkscape:version="1.1.2 (0a00cf5339, 2022-02-04)"
   sodipodi:docname="semantizacion.svg"
   xmlns:inkscape="http://www.inkscape.org/namespaces/inkscape"
   xmlns:sodipodi="http://sodipodi.sourceforge.net/DTD/sodipodi-0.dtd"
   xmlns="http://www.w3.org/2000/svg"
   xmlns:svg="http://www.w3.org/2000/svg">
  <sodipodi:namedview
     id="namedview7"
     pagecolor="#ffffff"
     bordercolor="#666666"
     borderopacity="1.0"
     inkscape:pageshadow="2"
     inkscape:pageopacity="0.0"
     inkscape:pagecheckerboard="0"
     inkscape:document-units="mm"
     showgrid="false"
     showguides="false"
     inkscape:guide-bbox="true"
     inkscape:zoom="0.5921627"
     inkscape:cx="678.02312"
     inkscape:cy="358.85408"
     inkscape:window-width="1366"
     inkscape:window-height="704"
     inkscape:window-x="0"
     inkscape:window-y="0"
     inkscape:window-maximized="1"
     inkscape:current-layer="layer1">
    <sodipodi:guide
       position="992.19424,284.70091"
       orientation="1,0"
       id="guide57729" />
    <sodipodi:guide
       position="981.85268,274.69806"
       orientation="0,-1"
       id="guide57731" />
  </sodipodi:namedview>
  <defs
     id="defs2" />
  <g
     inkscape:label="Capa 1"
     inkscape:groupmode="layer"
     id="layer1">
    <text
       xml:space="preserve"
       style="font-weight:300;font-size:366.667px;line-height:448.15px;font-family:'Fira Sans';-inkscape-font-specification:'Fira Sans Light'"
       x="-14.800171"
       y="484.53217"
       id="text7095"><tspan
         sodipodi:role="line"
         id="tspan7093"
         x="-14.800171"
         y="484.53217" /></text>
    <g
       aria-label="SIMPLE"
       id="text11385"
       style="font-weight:200;font-size:14.1111px;font-family:Montserrat;-inkscape-font-specification:'Montserrat Ultra-Light';font-variant-ligatures:none;stroke-width:0.264583"
       transform="matrix(14.205403,0,0,12.604049,-536.64276,-982.04171)">
      <path
         d="m 54.608279,114.95533 q -1.086554,0 -2.06022,-0.381 -0.959555,-0.39511 -1.467555,-0.98777 l 0.254,-0.33867 q 0.479777,0.53622 1.354666,0.91722 0.888999,0.36689 1.904998,0.36689 1.030111,0 1.693332,-0.28222 0.663222,-0.28222 0.973666,-0.74789 0.324555,-0.47978 0.324555,-1.05833 0,-0.67734 -0.338666,-1.08656 -0.338666,-0.40922 -0.90311,-0.64911 -0.550333,-0.23989 -1.213555,-0.39511 -0.649111,-0.15522 -1.326443,-0.32456 -0.663222,-0.18344 -1.227666,-0.45155 -0.550333,-0.28222 -0.888999,-0.762 -0.324556,-0.49389 -0.324556,-1.27 0,-0.66322 0.352778,-1.24178 0.352777,-0.57855 1.100666,-0.93133 0.747888,-0.36689 1.919109,-0.36689 0.804333,0 1.580443,0.254 0.790222,0.23989 1.340555,0.64911 l -0.211667,0.381 q -0.592666,-0.43744 -1.312332,-0.64911 -0.719666,-0.21166 -1.382888,-0.21166 -0.987777,0 -1.650998,0.29633 -0.649111,0.28222 -0.959555,0.762 -0.310444,0.47978 -0.310444,1.05833 0,0.69145 0.338666,1.10067 0.338666,0.40922 0.888999,0.64911 0.564444,0.23989 1.227666,0.39511 0.663222,0.15522 1.326443,0.33866 0.663222,0.16934 1.213555,0.45156 0.564444,0.28222 0.888999,0.762 0.338667,0.46567 0.338667,1.22767 0,0.66322 -0.366889,1.24177 -0.352777,0.57856 -1.128888,0.93133 -0.761999,0.35278 -1.947332,0.35278 z"
         id="path22139" />
      <path
         d="m 60.633694,114.89889 v -9.87777 h 0.479777 v 9.87777 z"
         id="path22141" />
      <path
         d="m 64.725899,114.89889 v -9.87777 h 0.39511 l 4.656663,8.08566 h -0.211666 l 4.628441,-8.08566 h 0.395111 l 0.01411,9.87777 h -0.465667 l -0.01411,-9.17222 h 0.155222 l -4.487329,7.80344 h -0.254 l -4.515552,-7.80344 h 0.169333 v 9.17222 z"
         id="path22143" />
      <path
         d="m 78.216102,114.89889 v -9.87777 H 81.6451 q 1.227665,0 2.102554,0.39511 0.888999,0.39511 1.354665,1.12889 0.465667,0.71966 0.465667,1.74977 0,1.03011 -0.465667,1.76389 -0.465666,0.73378 -1.354665,1.12889 -0.874889,0.39511 -2.102554,0.39511 H 78.484213 L 78.69588,111.357 v 3.54189 z m 0.479778,-3.54189 -0.211667,-0.21167 h 3.189109 q 1.66511,0 2.539998,-0.74788 0.888999,-0.74789 0.888999,-2.10256 0,-1.35466 -0.888999,-2.08844 -0.874888,-0.74789 -2.539998,-0.74789 h -3.189109 l 0.211667,-0.22578 z"
         id="path22145" />
      <path
         d="m 88.122089,114.89889 v -9.87777 h 0.479778 v 9.44032 h 5.785551 v 0.43745 z"
         id="path22147" />
      <path
         d="m 96.729843,109.66367 h 5.446887 v 0.43744 h -5.446887 z m 0.08467,4.79777 h 6.194767 v 0.43745 h -6.674544 v -9.87777 h 6.476994 v 0.43744 h -5.997217 z"
         id="path22149" />
    </g>
    <rect
       style="fill:#ffffff;stroke-width:3.54032"
       id="rect22423"
       height="124.49989"
       x="382.81519"
       y="341.64954"
       width="10.17274" />
    <rect
       style="fill:#ffffff;stroke-width:3.54032"
       id="rect125"
       height="124.49989"
       x="382.81519"
       y="341.64954"
       width="10.17274" />
    <path
       d="m 239.08995,466.86082 q -15.4349,0 -29.26627,-4.80214 -13.63083,-4.98001 -20.84717,-12.44988 l 3.60814,-4.26861 q 6.81543,6.75853 19.24362,11.56067 12.62859,4.62431 27.06123,4.62431 14.6331,0 24.05451,-3.55713 9.42132,-3.5571 13.83125,-9.42642 4.6105,-6.04719 4.6105,-13.33925 0,-8.53726 -4.8109,-13.69505 -4.81092,-5.15785 -12.8291,-8.18142 -7.81766,-3.02358 -17.23898,-4.98 -9.22093,-1.95639 -18.84272,-4.09079 -9.42129,-2.31207 -17.43947,-5.69133 -7.81769,-3.55713 -12.62858,-9.60429 -4.61039,-6.22501 -4.61039,-16.00714 0,-8.35926 5.0113,-15.65143 5.01133,-7.2921 15.63546,-11.73854 10.62402,-4.62431 27.26165,-4.62431 11.42586,0 22.45092,3.20143 11.22533,3.02359 19.04306,8.18141 l -3.00683,4.80214 q -8.41902,-5.51352 -18.64221,-8.18141 -10.22315,-2.66779 -19.64446,-2.66779 -14.03182,0 -23.45309,3.73497 -9.22093,3.55713 -13.63087,9.60428 -4.40995,6.04715 -4.40995,13.33925 0,8.71504 4.81081,13.8729 4.81092,5.15784 12.62865,8.1814 8.01815,3.02359 17.4395,4.98001 9.42128,1.95638 18.84266,4.26845 9.42138,2.1344 17.23901,5.6915 8.01815,3.55714 12.62861,9.60429 4.81086,5.86932 4.81086,15.4736 0,8.35928 -5.21185,15.65132 -5.01129,7.29222 -16.03626,11.73854 -10.82449,4.44646 -27.66264,4.44646 z"
       id="path111"
       style="font-weight:200;font-size:14.1111px;font-family:Montserrat;-inkscape-font-specification:'Montserrat Ultra-Light';font-variant-ligatures:none;stroke-width:3.54032" />
    <path
       d="M 324.6834,466.14947 V 341.64954 h 6.81547 v 124.49993 z"
       id="path113"
       style="font-weight:200;font-size:14.1111px;font-family:Montserrat;-inkscape-font-specification:'Montserrat Ultra-Light';font-variant-ligatures:none;stroke-width:3.54032" />
    <path
       d="M 382.81481,466.14947 V 341.64954 h 5.61273 l 66.14979,101.91208 h -3.00676 l 65.74882,-101.91208 h 5.61268 l 0.20059,124.49993 h -6.61496 l -0.20056,-115.60712 h 2.20503 l -63.74439,98.35495 h -3.60814 l -64.14523,-98.35495 h 2.40547 v 115.60712 z"
       id="path115"
       style="font-weight:200;font-size:14.1111px;font-family:Montserrat;-inkscape-font-specification:'Montserrat Ultra-Light';font-variant-ligatures:none;stroke-width:3.54032" />
    <path
       d="M 574.44857,466.14947 V 341.64954 h 48.71036 q 17.43943,0 29.86762,4.98001 12.62858,4.97998 19.24352,14.22856 6.61502,9.07066 6.61502,22.05423 0,12.98355 -6.61502,22.23213 -6.61494,9.24862 -19.24352,14.22859 -12.42819,4.97998 -29.86762,4.97998 H 578.2572 l 3.00687,-2.84572 v 44.64215 z m 6.8155,-44.64215 -3.00687,-2.66792 h 45.3026 q 23.65351,0 36.08177,-9.42633 12.6285,-9.42641 12.6285,-26.50073 0,-17.07422 -12.6285,-26.32283 -12.42826,-9.42642 -36.08177,-9.42642 h -45.3026 l 3.00687,-2.84575 z"
       id="path117"
       style="font-weight:200;font-size:14.1111px;font-family:Montserrat;-inkscape-font-specification:'Montserrat Ultra-Light';font-variant-ligatures:none;stroke-width:3.54032" />
    <path
       d="M 715.16715,466.14947 V 341.64954 h 6.81541 V 460.6358 h 82.18608 v 5.51367 z"
       id="path119"
       style="font-weight:200;font-size:14.1111px;font-family:Montserrat;-inkscape-font-specification:'Montserrat Ultra-Light';font-variant-ligatures:none;stroke-width:3.54032" />
    <path
       d="m 837.44368,400.16449 h 77.37519 v 5.51352 h -77.37519 z m 1.20292,60.47131 h 87.99915 v 5.51367 h -94.8147 V 341.64954 h 92.00823 v 5.51355 H 838.6466 Z"
       id="path121"
       style="font-weight:200;font-size:14.1111px;font-family:Montserrat;-inkscape-font-specification:'Montserrat Ultra-Light';font-variant-ligatures:none;stroke-width:3.54032" />
    <rect
       style="fill:#ffffff;stroke:#ffffff;stroke-width:2.98417;stroke-opacity:1"
       id="rect57723"
       width="6.6149735"
       height="124.4999"
       x="382.81467"
       y="341.6496" />
    <rect
       style="fill:#ffffff;stroke:#ffffff;stroke-width:2.98417;stroke-opacity:1"
       id="rect57755"
       width="6.8156648"
       height="124.49989"
       x="831.83093"
       y="341.64957" />
  </g>
</svg>
